<?xml version="1.0" encoding="utf-8"?>
<!-- Generator: Adobe Illustrator 27.9.0, SVG Export Plug-In . SVG Version: 6.00 Build 0)  -->
<svg version="1.1" xmlns="http://www.w3.org/2000/svg" xmlns:xlink="http://www.w3.org/1999/xlink" x="0px" y="0px"
	 viewBox="0 0 595.28 841.89" style="enable-background:new 0 0 595.28 841.89;" xml:space="preserve">
<style type="text/css">
	.st0{display:none;}
	.st1{display:inline;fill:none;}
	.st2{display:inline;fill:none;stroke:#000000;stroke-miterlimit:10;}
	.st3{fill:#FFFFFF;stroke:#000000;stroke-miterlimit:10;}
</style>
<g id="Calque_1" class="st0">
	<polyline class="st1" points="632.1,582.37 622.91,582.4 615.86,582.42 564.22,582.57 556.53,582.59 531.31,582.66 505.54,582.74 
		503.62,582.74 497.19,582.76 475.92,582.82 448.22,582.91 446.86,582.91 438.58,582.93 437.86,582.94 420.52,582.99 392.83,583.07 
		388.16,583.08 378.53,583.11 365.13,583.15 	"/>
	<polyline class="st1" points="-68.5,584.41 -36.8,584.32 22.54,584.14 32.77,584.12 36.05,584.11 60.47,584.03 81.86,583.97 
		88.17,583.95 94.73,583.93 115.86,583.87 127.25,583.84 	"/>
	<polyline class="st1" points="254.34,583.47 259.86,583.45 270.8,583.42 282.04,583.39 309.74,583.31 	"/>
	<polyline class="st1" points="632.02,554.68 629.79,554.69 608.91,554.75 571.1,554.86 549.57,554.92 531.23,554.97 512.42,555.03 
		503.53,555.05 490.96,555.09 490.24,555.09 	"/>
	<polyline class="st1" points="448.14,555.22 430.91,555.27 420.44,555.3 395.05,555.37 392.75,555.38 371.58,555.44 365.05,555.46 
			"/>
	<polyline class="st1" points="-68.58,556.72 -43.76,556.65 -15.76,556.57 15.58,556.47 32.69,556.43 42.92,556.4 60.39,556.34 
		74.92,556.3 75.45,556.3 	"/>
	<polyline class="st1" points="309.66,555.62 281.96,555.7 277.67,555.71 254.26,555.78 	"/>
	<polyline class="st1" points="631.94,526.98 601.97,527.07 577.96,527.14 542.64,527.24 531.15,527.27 519.28,527.31 
		503.45,527.35 503.17,527.35 	"/>
	<polyline class="st1" points="448.06,527.52 423.98,527.59 420.36,527.6 401.91,527.65 392.67,527.68 364.97,527.76 	"/>
	<polyline class="st1" points="-68.66,529.02 -67.59,529.02 -50.69,528.97 -8.91,528.85 8.64,528.79 32.61,528.73 49.78,528.68 
		60.31,528.64 60.96,528.64 	"/>
	<polyline class="st1" points="309.58,527.92 305.3,527.93 284.53,527.99 281.88,528 254.18,528.08 	"/>
	<polyline class="st1" points="167.16,528.33 171.09,528.32 186.64,528.28 198.79,528.24 	"/>
	<polyline class="st1" points="631.86,499.28 595.03,499.39 584.83,499.42 535.7,499.56 531.07,499.57 526.13,499.59 503.37,499.66 
		503.17,499.66 	"/>
	<polyline class="st1" points="447.98,499.82 420.28,499.9 417.03,499.91 408.77,499.93 392.59,499.98 364.89,500.06 	"/>
	<polyline class="st1" points="-68.74,501.33 -60.72,501.31 -57.65,501.3 -2.03,501.13 1.69,501.12 32.53,501.03 56.66,500.96 
		60.23,500.95 60.96,500.95 	"/>
	<polyline class="st1" points="309.5,500.22 298.36,500.26 291.4,500.28 281.8,500.3 254.1,500.39 	"/>
	<polyline class="st1" points="198.71,500.55 179.7,500.6 174.03,500.62 171.01,500.63 143.32,500.71 120.36,500.78 115.62,500.79 	
		"/>
	<polyline class="st1" points="631.78,471.59 591.7,471.71 588.09,471.72 533.02,471.88 530.99,471.88 528.75,471.89 503.29,471.96 
		503.17,471.96 	"/>
	<polyline class="st1" points="447.9,472.13 420.2,472.21 415.64,472.22 410.08,472.24 392.51,472.29 364.81,472.37 	"/>
	<polyline class="st1" points="-68.82,473.63 -64.57,473.62 -53.85,473.59 -5.25,473.44 4.84,473.42 32.45,473.34 54.09,473.27 
		60.15,473.25 60.96,473.25 	"/>
	<polyline class="st1" points="309.42,472.53 298.27,472.56 291.42,472.58 281.72,472.61 254.02,472.69 	"/>
	<polyline class="st1" points="198.63,472.85 180.89,472.9 172.75,472.93 170.93,472.93 143.24,473.01 122.21,473.07 115.54,473.09 
			"/>
	<polyline class="st1" points="631.7,443.89 598.56,443.99 581.15,444.04 539.88,444.16 530.91,444.18 521.81,444.21 503.21,444.26 
		503.17,444.26 	"/>
	<polyline class="st1" points="-68.9,445.93 -46.99,445.87 -12.18,445.76 11.7,445.7 32.37,445.64 47.15,445.59 60.07,445.55 
		60.96,445.55 	"/>
	<polyline class="st1" points="115.46,445.39 129.07,445.35 143.16,445.31 165.81,445.25 170.85,445.23 187.76,445.18 
		198.55,445.15 225.15,445.07 226.25,445.07 246.44,445.01 253.94,444.99 281.64,444.91 284.49,444.9 305.13,444.84 309.34,444.83 	
		"/>
	<polyline class="st1" points="631.62,416.19 605.42,416.27 574.21,416.36 546.73,416.44 530.83,416.48 514.88,416.53 
		503.17,416.57 503.13,416.57 	"/>
	<polyline class="st1" points="-68.98,418.24 -40.11,418.16 -19.14,418.09 18.57,417.98 32.29,417.94 40.21,417.92 59.99,417.86 
		60.96,417.86 	"/>
	<polyline class="st1" points="115.38,417.7 135.95,417.64 143.08,417.62 158.87,417.57 170.77,417.54 194.63,417.47 198.47,417.46 
		218.2,417.4 226.17,417.38 253.31,417.3 253.86,417.3 277.53,417.23 281.56,417.21 309.26,417.13 	"/>
	<polyline class="st1" points="631.53,388.5 626.59,388.51 612.29,388.56 567.26,388.69 553.61,388.73 530.74,388.79 507.92,388.86 
		503.17,388.87 503.05,388.87 	"/>
	<polyline class="st1" points="-69.06,390.54 -33.26,390.44 -26.06,390.41 25.43,390.26 32.21,390.25 33.26,390.24 59.91,390.16 
		60.96,390.16 	"/>
	<polyline class="st1" points="115.3,390 142.81,389.92 143,389.92 151.93,389.9 170.69,389.84 198.39,389.76 201.49,389.75 
		211.26,389.72 226.08,389.68 253.78,389.6 260.18,389.58 270.59,389.55 281.48,389.52 309.17,389.44 	"/>
	<polyline class="st1" points="502.97,361.17 503.17,361.17 530.66,361.09 560.32,361.01 560.47,361.01 619.16,360.84 
		619.66,360.83 631.45,360.8 	"/>
	<polyline class="st1" points="447.58,361.34 443.1,361.35 441.66,361.35 419.88,361.42 392.18,361.5 384.41,361.52 382.32,361.53 
		364.49,361.58 	"/>
	<polyline class="st1" points="-69.14,362.84 -26.39,362.72 26.34,362.56 32.13,362.55 32.3,362.54 59.83,362.46 60.96,362.46 	"/>
	<polyline class="st1" points="309.09,361.74 281.4,361.82 267.04,361.86 263.66,361.87 253.7,361.9 	"/>
	<polyline class="st1" points="198.31,362.06 170.61,362.14 149.67,362.2 145,362.22 142.92,362.22 115.22,362.3 	"/>
	<polyline class="st1" points="631.37,333.1 626.01,333.12 612.72,333.15 567.33,333.29 553.39,333.33 530.58,333.39 508.64,333.46 
		503.17,333.48 502.89,333.48 	"/>
	<polyline class="st1" points="447.5,333.64 434.71,333.68 419.8,333.72 392.1,333.8 391.28,333.8 375.38,333.85 364.41,333.88 	"/>
	<polyline class="st1" points="-69.22,335.15 -19.51,335 32.05,334.85 39.17,334.83 59.75,334.77 60.96,334.77 	"/>
	<polyline class="st1" points="138.04,334.54 142.84,334.53 156.53,334.49 170.53,334.45 197.38,334.37 198.23,334.37 	"/>
	<polyline class="st1" points="253.62,334.21 256.72,334.2 273.91,334.15 281.32,334.12 309.01,334.04 	"/>
	<polyline class="st1" points="631.29,305.41 605.77,305.48 574.2,305.58 546.44,305.66 530.5,305.7 515.52,305.75 502.81,305.78 
		488.68,305.83 	"/>
	<polyline class="st1" points="447.42,305.95 427.77,306 419.72,306.03 398.15,306.09 392.02,306.11 368.44,306.18 364.33,306.19 	
		"/>
	<polyline class="st1" points="-69.3,307.45 -12.66,307.29 31.97,307.16 46.03,307.11 59.67,307.07 73.18,307.04 	"/>
	<polyline class="st1" points="253.54,306.51 280.78,306.43 281.24,306.43 308.93,306.35 	"/>
	<line class="st1" x1="198.15" y1="306.67" x2="190.43" y2="306.69"/>
	<polyline class="st1" points="364.25,278.49 391.94,278.41 405,278.37 419.64,278.33 420.83,278.32 436.85,278.28 447.34,278.25 
		463.7,278.2 475.03,278.16 480.17,278.15 502.73,278.08 522.37,278.03 530.42,278 539.49,277.98 598.83,277.8 631.21,277.71 	"/>
	<polyline class="st1" points="308.85,278.65 302.17,278.67 287.64,278.71 281.16,278.73 253.46,278.81 	"/>
	<polyline class="st1" points="-69.38,279.75 -64.48,279.74 -5.79,279.56 31.89,279.46 52.89,279.39 59.59,279.37 87.28,279.29 
		111.57,279.22 114.98,279.21 125.58,279.18 	"/>
	<polyline class="st1" points="364.17,250.8 385.04,250.74 391.86,250.72 411.89,250.66 413.88,250.65 419.56,250.64 447.26,250.56 
		470.56,250.49 473.21,250.48 474.95,250.47 502.65,250.39 530.34,250.31 532.55,250.31 591.87,250.13 631.13,250.02 	"/>
	<polyline class="st1" points="308.77,250.96 295.21,251 294.51,251 281.08,251.04 253.38,251.12 	"/>
	<polyline class="st1" points="-69.46,252.06 -57.6,252.03 1.08,251.85 31.81,251.77 59.51,251.68 59.77,251.68 87.2,251.6 
		114.9,251.52 118.46,251.51 142.6,251.44 170.29,251.36 177.14,251.34 177.95,251.34 	"/>
	<polyline class="st1" points="333.21,223.19 336.39,223.18 347.61,223.15 360.06,223.11 364.09,223.1 391.78,223.02 406.95,222.97 
		418.74,222.94 419.48,222.94 447.18,222.86 466.28,222.8 474.87,222.77 502.57,222.69 525.61,222.63 530.26,222.61 584.95,222.45 
		631.05,222.32 	"/>
	<polyline class="st1" points="308.69,223.26 301.37,223.28 288.29,223.32 281,223.34 253.3,223.42 	"/>
	<polyline class="st1" points="-69.55,224.36 -50.75,224.31 7.94,224.13 31.73,224.07 59.43,223.98 66.63,223.96 87.12,223.9 
		114.82,223.82 125.31,223.79 142.52,223.74 170.21,223.66 184,223.62 197.91,223.58 225.6,223.5 230.35,223.49 	"/>
	<polyline class="st1" points="630.97,194.62 578.01,194.77 530.18,194.91 518.68,194.95 502.49,195 474.79,195.08 459.34,195.12 
		447.1,195.16 419.4,195.24 400,195.3 391.7,195.32 366.92,195.39 364.01,195.4 340.68,195.47 336.31,195.48 308.61,195.56 
		308.24,195.56 280.92,195.64 253.22,195.73 249.55,195.74 225.52,195.81 197.83,195.89 190.87,195.91 170.13,195.97 142.44,196.05 
		132.19,196.08 114.74,196.13 87.04,196.21 73.5,196.25 59.35,196.29 31.65,196.37 14.82,196.42 -43.87,196.59 -69.63,196.67 	"/>
	<polyline class="st1" points="630.89,166.93 630.39,166.93 571.06,167.1 530.1,167.22 511.73,167.28 502.41,167.3 474.71,167.38 
		452.39,167.45 447.02,167.47 419.32,167.55 393.06,167.62 391.62,167.63 363.93,167.71 336.23,167.79 315.1,167.85 308.53,167.87 
		280.84,167.95 256.43,168.02 253.14,168.03 225.44,168.11 197.75,168.19 197.73,168.19 170.05,168.27 142.36,168.35 139.05,168.36 
		114.66,168.43 86.96,168.51 80.37,168.53 59.27,168.59 31.57,168.68 21.68,168.7 -37,168.87 -69.71,168.97 	"/>
	<polyline class="st1" points="-68.25,667.5 -15.98,667.35 33.02,667.21 43.35,667.18 60.72,667.12 88.42,667.04 102.69,667 
		116.11,666.96 143.81,666.88 162.03,666.83 171.5,666.8 191.51,666.74 199.2,666.72 221.35,666.66 226.9,666.64 250.19,666.57 
		254.59,666.56 280.69,666.48 282.29,666.48 308.88,666.4 309.99,666.4 337.68,666.32 340.02,666.31 365.38,666.24 367.57,666.23 
		393.08,666.16 399.35,666.14 420.77,666.08 426.26,666.06 448.47,666 458.69,665.97 476.16,665.91 484.94,665.89 503.86,665.83 
		518.02,665.79 531.56,665.75 543.62,665.72 602.32,665.55 632.34,665.46 	"/>
	<polyline class="st1" points="333.07,638.64 333.79,638.63 337.6,638.62 365.3,638.54 374.44,638.51 392.41,638.46 392.99,638.46 
		420.69,638.38 433.12,638.34 448.39,638.3 451.74,638.29 476.08,638.22 491.8,638.17 503.78,638.14 511.08,638.12 531.47,638.06 
		550.49,638 570.41,637.94 609.18,637.83 632.42,637.76 	"/>
	<polyline class="st1" points="-68.17,639.81 -22.93,639.68 32.94,639.51 36.4,639.5 60.64,639.43 88.33,639.35 95.73,639.33 
		116.03,639.27 139.7,639.2 143.73,639.19 155.07,639.16 171.42,639.11 198.38,639.03 199.12,639.03 214.41,638.98 226.81,638.95 
		230.9,638.93 	"/>
	<polyline class="st1" points="254.51,638.87 257.07,638.86 273.74,638.81 282.21,638.78 309.9,638.7 	"/>
	<polyline class="st1" points="632.42,610.07 622.8,610.1 616.05,610.12 563.46,610.27 557.37,610.29 531.39,610.36 504.13,610.44 
		503.7,610.44 498.68,610.46 476,610.53 448.31,610.61 444.79,610.62 439.99,610.63 420.61,610.69 392.91,610.77 386.18,610.79 
		385.46,610.79 381.31,610.8 365.22,610.85 	"/>
	<polyline class="st1" points="-68.17,612.11 -29.86,612 29.46,611.83 32.86,611.82 60.56,611.74 87.88,611.66 88.25,611.65 
		88.8,611.65 115.95,611.57 143.65,611.49 146.56,611.48 148.13,611.48 171.34,611.41 179.08,611.39 	"/>
	<polyline class="st1" points="254.43,611.17 263.94,611.14 266.8,611.13 282.13,611.09 309.82,611.01 	"/>
	<path class="st1" d="M-4.38,1162.08"/>
	<polyline class="st1" points="448.76,766.7 448.68,740.71 448.59,709.3 448.57,702.71 448.5,677.88 448.48,671.39 448.47,666 
		448.41,646.47 448.39,640.07 448.39,638.3 448.32,615.06 448.31,610.61 448.3,608.75 448.23,583.64 448.22,582.91 448.21,577.81 
		448.21,577.43 	"/>
	<polyline class="st1" points="447.35,283.86 447.34,278.25 447.31,269.49 447.3,264.26 447.26,250.56 447.22,238.08 447.21,232.94 
		447.18,222.86 447.11,201.62 447.1,195.16 447.02,170.3 447.02,167.47 446.93,138.99 446.72,66.1 	"/>
	<polyline class="st1" points="419.96,389.12 419.93,380.4 419.91,372.91 419.88,361.42 419.84,348.99 419.82,341.59 419.8,333.72 
		419.75,317.57 419.73,310.28 419.72,306.03 419.66,286.16 419.64,278.96 419.64,278.33 419.61,269.11 419.57,254.74 419.56,250.64 
		419.55,247.64 419.48,223.33 419.48,222.94 419.46,216.32 419.4,195.24 419.37,185 419.32,167.55 419.27,153.69 419.02,66.18 	"/>
	<polyline class="st1" points="420.12,444.51 420.19,466.86 420.2,472.21 420.21,474.65 420.28,498.18 420.28,499.9 420.3,506.06 
		420.36,527.6 420.37,529.5 420.39,537.48 420.44,555.3 420.46,560.82 420.48,568.89 420.52,582.99 420.55,592.14 420.55,592.51 
		420.58,600.31 420.61,610.69 420.64,623.45 420.67,631.72 420.69,638.38 420.73,654.77 420.76,663.14 420.77,666.08 420.83,686.09 
		420.85,694.55 420.92,717.41 420.94,725.97 421.03,757.38 421.06,766.78 	"/>
	<polyline class="st1" points="392.26,389.2 392.26,387.61 392.2,365.66 392.18,361.5 392.17,356.29 392.1,334.24 392.1,333.8 
		392.08,324.97 392.02,306.11 392.01,302.83 391.99,293.66 391.94,278.41 391.92,271.41 391.89,262.34 391.87,254.37 391.86,250.72 
		391.83,239.99 391.8,231.02 391.78,223.02 391.74,208.59 391.71,199.7 391.7,195.32 391.62,168.39 391.62,167.63 391.32,66.26 	"/>
	<polyline class="st1" points="392.43,444.59 392.44,450.25 392.47,459.9 392.51,472.29 392.54,481.56 392.56,491.32 392.59,499.98 
		392.63,512.88 392.66,522.73 392.67,527.68 392.72,544.2 392.75,554.15 392.75,555.38 392.81,575.52 392.83,583.07 392.84,585.57 
		392.9,606.83 392.9,607.21 392.91,610.77 392.93,616.98 392.99,638.15 392.99,638.46 393.02,648.39 393.08,666.16 393.09,669.47 
		393.12,679.81 393.18,700.79 393.21,711.22 393.27,732.1 393.3,742.64 393.37,766.86 	"/>
	<polyline class="st1" points="365.67,766.94 365.65,759.31 365.61,746.81 365.56,727.9 365.52,715.49 365.46,696.48 365.43,684.17 
		365.38,666.24 365.37,665.06 365.34,652.85 365.3,638.54 365.28,633.65 365.25,621.91 365.25,621.53 	"/>
	<line class="st1" x1="364.97" y1="527.76" x2="364.97" y2="527.58"/>
	<polyline class="st1" points="364.13,239.63 364.09,225.25 364.09,223.1 364.06,214.4 364.01,195.4 364,193.84 363.97,183.09 
		363.93,167.71 363.63,66.34 	"/>
	<polyline class="st1" points="335.93,66.42 336.23,167.79 336.26,179.09 336.31,195.48 336.31,197.79 336.35,210.5 336.39,223.18 
		336.39,224.88 	"/>
	<polyline class="st1" points="337.59,636.24 337.59,636.61 337.6,638.62 337.63,650.31 337.68,666.32 337.68,667.55 337.72,681.73 
		337.77,698.87 337.81,713.15 337.86,730.19 337.9,744.56 337.95,761.51 337.97,767.02 	"/>
	<polyline class="st1" points="308.65,210.13 308.61,195.76 308.61,195.56 308.53,167.87 308.52,164.35 308.23,66.51 	"/>
	<line class="st1" x1="308.93" y1="306.44" x2="308.93" y2="306.35"/>
	<polyline class="st1" points="309.94,650.93 309.94,651.31 309.99,666.4 309.99,666.99 310.03,682.25 310.08,698.41 310.12,713.57 
		310.17,729.82 310.22,744.89 310.28,767.1 	"/>
	<polyline class="st1" points="282.58,767.18 282.56,759.59 282.47,728.27 282.43,715.07 282.38,696.95 282.34,683.66 
		282.29,666.48 282.29,666.01 282.28,665.63 282.25,652.24 282.21,638.78 282.19,634.32 282.15,620.83 282.13,611.09 282.1,603 
		282.06,589.41 282.04,583.39 282.01,571.68 281.97,558 281.96,555.7 281.92,540.36 281.88,528 281.88,526.58 281.83,509.04 
		281.8,500.3 281.79,495.16 281.74,477.73 281.72,472.61 281.7,463.75 281.65,446.41 281.64,444.91 281.61,432.34 281.6,432.34 
		281.56,417.21 281.55,415.09 281.51,400.92 281.48,389.52 281.46,383.77 281.42,369.51 281.4,361.82 281.37,352.46 281.33,338.09 
		281.32,334.12 281.28,321.14 281.24,306.68 281.24,306.43 281.19,289.82 281.16,278.73 281.15,275.26 281.1,258.5 281.08,251.04 
		281.06,243.85 281.01,227.19 281,223.34 280.96,212.43 280.92,196.61 280.92,195.64 280.87,181.01 280.84,167.95 280.78,149.61 
		280.54,66.59 	"/>
	<polyline class="st1" points="252.84,66.67 253.04,134.86 253.13,166.27 253.14,168.03 253.22,195.73 253.22,197.69 253.26,211.31 
			"/>
	<polyline class="st1" points="254.02,472.69 253.99,461.11 253.95,449 253.94,444.99 253.9,429.79 253.86,417.59 253.86,417.3 
		253.81,398.47 253.78,389.6 253.77,386.18 253.71,367.16 253.7,361.9 	"/>
	<polyline class="st1" points="254.88,767.26 254.81,742.97 254.72,711.65 254.69,700.32 254.63,680.34 254.59,668.91 
		254.59,666.56 254.54,651.5 	"/>
	<polyline class="st1" points="225.14,66.75 225.3,120.11 225.39,151.52 225.44,168.11 225.48,182.94 225.52,195.81 225.57,214.36 
		225.6,223.5 225.61,226.01 	"/>
	<polyline class="st1" points="226.33,472.77 226.31,465.67 226.25,445.07 226.25,444.49 226.22,434.26 226.17,417.38 
		226.15,413.17 226.12,402.84 226.08,389.68 226.06,381.86 226.03,371.43 226,361.98 	"/>
	<polyline class="st1" points="226.81,636.76 226.81,638.95 226.86,654.17 226.89,663.71 226.9,666.64 226.95,685.58 226.98,695.03 
		227.07,726.35 227.16,757.67 227.19,767.34 	"/>
	<polyline class="st1" points="197.45,66.83 197.56,105.37 197.65,136.78 197.75,168.19 197.75,168.2 197.83,195.89 197.84,199.61 
		197.91,223.58 197.93,231.02 197.96,240.71 	"/>
	<polyline class="st1" points="199.49,767.42 199.41,741.05 199.32,709.73 199.23,678.42 199.21,670.84 199.2,666.72 199.14,647.1 
		199.12,639.42 199.12,639.03 199.07,622.01 	"/>
	<polyline class="st1" points="198.31,362.06 198.32,365.24 198.39,388.1 198.39,389.76 198.41,396.56 198.47,417.46 198.48,419.51 
		198.5,427.87 198.55,445.15 198.57,450.93 198.59,459.19 198.63,472.85 	"/>
	<polyline class="st1" points="169.75,66.91 169.82,90.62 169.91,122.03 170,153.45 170.05,168.27 170.09,184.87 170.13,195.97 
		170.18,216.28 170.21,223.66 170.28,247.69 170.29,251.36 170.3,255.41 	"/>
	<polyline class="st1" points="171.1,530.43 171.09,528.32 171.03,505.21 171.01,500.63 171.01,499.01 170.94,473.89 170.93,472.93 
		170.92,467.6 170.85,445.23 170.84,442.57 170.83,436.18 170.77,417.54 170.75,411.26 170.73,404.77 170.69,389.84 170.66,379.94 
		170.64,373.35 170.61,362.14 170.57,348.62 170.55,341.94 170.53,334.45 170.48,317.3 	"/>
	<polyline class="st1" points="171.32,607.27 171.34,611.41 171.37,624.68 171.39,630.48 171.42,639.11 171.47,656.09 171.48,661.8 
		171.5,666.8 171.57,693.12 171.66,724.44 171.76,755.75 171.79,767.5 	"/>
	<polyline class="st1" points="142.06,66.99 142.09,75.88 142.18,107.29 142.27,138.71 142.36,168.35 142.36,170.12 142.44,196.05 
		142.45,201.54 142.52,223.74 142.54,232.95 142.6,251.44 142.63,264.36 142.65,270.11 	"/>
	<polyline class="st1" points="142.83,332 142.84,334.53 142.91,358.61 142.92,362.22 142.92,363.32 143,389.92 143,390.03 
		143.01,394.64 143.08,417.62 143.09,421.44 143.11,425.95 143.16,445.31 143.18,452.86 143.2,457.27 143.24,473.01 143.28,484.27 
		143.29,488.59 143.32,500.71 143.37,515.69 	"/>
	<polyline class="st1" points="143.59,592.52 143.64,609.94 143.65,611.49 143.65,613.86 143.73,639.19 143.73,641.35 
		143.74,645.18 143.81,666.88 143.83,676.5 143.93,707.81 144.02,739.13 144.1,767.59 	"/>
	<polyline class="st1" points="114.99,284.81 114.98,281.03 114.98,279.21 114.9,251.52 114.89,249.62 114.82,223.82 114.8,218.2 
		114.74,196.13 114.71,186.79 114.66,168.43 114.62,155.38 114.53,123.96 114.43,92.54 114.36,67.07 	"/>
	<line class="st1" x1="115.62" y1="500.94" x2="115.62" y2="500.79"/>
	<polyline class="st1" points="115.85,577.78 115.86,583.87 115.9,595.19 115.9,597.24 115.95,611.57 115.99,626.6 115.99,628.56 
		116.03,639.27 116.09,659.88 116.11,666.96 116.18,691.2 116.27,722.51 116.36,753.83 116.4,767.67 	"/>
	<polyline class="st1" points="87.34,299.51 87.33,297.71 87.28,279.29 87.24,266.29 87.2,251.6 87.15,234.87 87.12,223.9 
		87.06,203.46 87.04,196.21 86.97,172.04 86.96,168.51 86.88,140.63 86.87,140.62 86.78,109.21 86.69,77.79 86.66,67.15 	"/>
	<polyline class="st1" points="88.11,563.03 88.16,580.44 88.16,580.62 88.17,583.95 88.25,611.65 88.25,611.86 88.25,611.94 
		88.33,639.35 88.35,643.26 88.42,667.04 88.44,674.58 88.53,705.9 88.62,737.21 88.71,767.75 	"/>
	<polyline class="st1" points="61.01,767.83 60.96,751.91 60.87,720.6 60.78,689.28 60.72,667.12 60.69,657.96 60.64,639.43 
		60.6,626.64 60.56,611.74 60.51,597.11 60.51,595.32 60.47,584.03 60.42,565.7 60.42,564.01 60.39,556.34 60.33,534.28 
		60.33,532.69 60.31,528.64 60.24,502.86 60.23,501.37 60.23,500.95 60.15,473.25 60.15,471.45 60.14,470.05 60.07,445.55 
		60.06,440.04 60.05,438.73 59.99,417.86 59.96,408.62 59.96,407.42 59.91,390.16 59.87,377.2 59.87,376.1 59.83,362.46 
		59.78,345.79 59.78,344.79 59.75,334.77 59.69,314.37 59.67,307.07 59.6,282.96 59.59,279.37 59.51,251.68 59.51,251.55 
		59.43,223.98 59.42,220.13 59.35,196.29 59.32,188.72 59.27,168.59 59.23,157.3 59.14,125.89 59.05,94.47 58.97,67.23 	"/>
	<polyline class="st1" points="33.31,767.91 33.31,766.61 33.22,735.3 33.12,703.98 33.03,672.66 33.02,667.21 32.94,641.34 
		32.94,639.51 32.86,611.82 32.85,610.03 32.77,584.12 32.77,582.36 32.76,578.71 32.69,556.43 32.68,550.95 32.67,547.39 
		32.61,528.73 32.59,519.53 32.58,516.07 32.53,501.03 32.5,488.12 32.49,484.76 32.45,473.34 32.4,456.7 32.39,453.44 
		32.37,445.64 32.31,425.29 32.3,422.12 32.29,417.94 32.22,393.87 32.21,390.8 32.21,390.25 32.13,362.55 32.13,362.45 
		32.12,359.49 32.05,334.85 32.04,331.04 31.97,307.16 31.95,299.63 31.89,279.46 31.86,268.22 31.85,268.22 31.81,251.77 
		31.76,236.8 31.73,224.07 31.67,205.38 31.65,196.37 31.58,173.97 31.57,168.68 31.49,142.55 31.4,111.14 31.31,79.72 31.27,67.31 
			"/>
	<polyline class="st1" points="531.85,766.46 531.81,753.53 531.72,722.12 531.63,690.7 531.56,665.75 531.54,659.29 531.53,658.61 
		531.47,638.06 531.44,627.87 531.44,627.29 531.39,610.36 531.35,596.46 531.35,595.97 531.31,582.66 531.26,565.04 531.26,564.65 
		531.23,554.97 531.17,533.63 531.17,533.34 531.15,527.27 531.08,502.22 531.08,502.02 531.07,499.57 530.99,471.88 530.98,470.8 
		530.98,470.7 530.91,444.18 530.89,439.38 530.83,416.48 530.8,408.07 530.8,407.97 530.74,388.79 530.71,376.75 530.71,376.55 
		530.66,361.09 530.62,345.43 530.62,345.14 530.58,333.39 530.53,314.11 530.53,313.72 530.5,305.7 530.43,282.79 530.43,282.31 
		530.42,278 530.34,251.48 530.34,250.31 530.26,222.61 530.25,220.16 530.18,194.91 530.16,188.85 530.1,167.22 530.07,157.53 
		529.98,126.2 529.88,94.89 529.8,65.86 	"/>
	<polyline class="st1" points="504.15,766.37 504.07,738.79 503.98,707.37 503.89,675.96 503.88,673.31 503.86,665.83 503.8,644.55 
		503.79,641.99 503.78,638.14 503.7,613.13 503.7,610.67 503.7,610.44 503.62,582.74 503.61,581.71 503.61,579.35 503.53,555.05 
		503.52,550.3 503.51,548.04 503.45,527.35 503.43,518.88 503.42,516.72 503.37,499.66 503.34,487.47 503.33,485.4 503.29,471.96 
		503.25,456.05 503.24,454.08 503.21,444.26 503.17,429.81 	"/>
	<polyline class="st1" points="502.11,65.78 502.24,109.59 502.33,140.9 502.41,167.3 502.42,172.22 502.49,195 502.51,203.54 
		502.57,222.69 502.6,234.86 502.65,250.39 502.69,266.18 502.7,267.57 502.73,278.08 502.78,297.49 502.79,298.98 502.81,305.78 
		502.83,313.35 	"/>
	<polyline class="st1" points="476.45,766.37 476.42,755.46 476.33,724.04 476.24,692.63 476.22,688.01 476.16,665.91 
		476.14,661.21 476.13,656.69 476.08,638.22 476.05,629.8 476.04,625.37 476,610.53 475.96,598.38 475.95,594.05 475.92,582.82 
		475.87,566.96 475.86,563.12 475.86,562.74 	"/>
	<polyline class="st1" points="475.09,298.6 475.05,284.23 475.04,280.88 475.03,278.16 474.95,252.82 474.95,250.47 474.95,249.56 
		474.87,222.77 474.85,218.24 474.79,195.08 474.76,186.92 474.71,167.38 474.67,155.6 474.58,124.29 474.41,65.78 	"/>
	<polygon class="st2" points="447.66,389.04 436.24,389.07 419.96,389.12 392.26,389.2 389.26,389.21 377.56,389.24 364.57,389.28 
		364.55,382.33 364.52,370.99 364.49,361.58 364.46,350.91 364.43,339.67 364.41,333.88 364.37,319.5 364.33,308.36 364.33,306.19 
		364.28,288.08 364.25,278.49 364.24,277.04 364.18,256.67 364.17,250.8 364.15,245.72 364.13,239.63 369.88,242.68 385.04,250.74 
		391.87,254.37 399.38,258.36 419.61,269.11 428.88,274.04 436.85,278.28 447.35,283.86 447.39,295.57 447.4,300.91 447.42,305.95 
		447.48,326.89 447.5,332.32 447.5,333.64 447.57,358.21 447.58,361.34 447.59,363.73 	"/>
	<polygon class="st2" points="61.02,500.95 60.96,500.98 60.96,500.95 	"/>
	<polygon class="st2" points="503.17,548.22 503.17,548.6 501.75,549.36 490.96,555.09 475.86,563.12 472.24,565.04 448.21,577.81 
		442.74,580.72 438.58,582.93 420.55,592.51 413.23,596.41 392.9,607.21 386.18,610.79 383.73,612.09 365.25,621.91 354.23,627.77 
		337.59,636.61 333.79,638.63 324.72,643.45 309.94,651.31 295.22,659.14 282.29,666.01 282.06,666.13 281.71,665.94 254.54,651.5 
		254.54,649.02 254.51,638.87 254.5,637.5 254.44,617.7 254.43,611.17 254.41,606.08 254.35,586.38 254.34,583.47 254.32,574.66 
		254.26,555.78 254.26,555.06 254.23,543.25 254.18,528.08 254.17,523.75 254.14,511.84 254.1,500.39 254.08,492.43 254.04,480.42 
		254.02,472.69 239.59,472.73 232.09,472.75 226.33,472.77 198.63,472.85 198.66,482.35 198.68,490.51 198.71,500.55 198.75,513.76 
		198.77,521.83 198.79,528.24 198.84,545.17 176.85,533.48 171.1,530.43 167.16,528.33 147.35,517.8 143.37,515.69 117.84,502.12 
		115.62,500.94 115.35,500.79 115.62,500.79 115.54,473.09 115.54,471.97 115.53,469.53 115.46,445.39 115.45,440.66 115.44,438.11 
		115.38,417.7 115.36,409.34 115.35,406.69 115.3,390 115.27,378.02 115.26,375.28 115.22,362.3 115.17,346.7 117.84,345.28 
		138.04,334.54 142.83,332 147.34,329.6 170.48,317.3 176.84,313.92 190.43,306.69 198.14,302.6 198.15,306.67 198.2,325.27 
		198.23,333.92 198.23,334.37 198.29,356.69 198.31,362.06 204.33,362.04 208.35,362.03 226,361.98 253.7,361.9 253.68,354.76 
		253.62,335.84 253.62,334.21 253.59,323.34 253.54,306.51 253.53,304.52 253.5,291.93 253.46,278.81 253.44,273.2 253.4,260.51 
		253.38,251.12 253.35,241.89 253.31,229.1 253.3,223.42 253.26,211.31 266.05,204.51 280.92,196.61 282.06,196 308.65,210.13 
		308.66,212.49 308.69,223.26 308.7,227.18 308.75,243.8 308.77,250.96 308.79,258.59 308.84,275.12 308.85,278.65 308.88,290.01 
		308.93,306.35 309.11,306.35 308.93,306.44 308.98,321.42 309.01,334.04 309.02,337.76 309.07,352.83 309.09,361.74 309.12,369.07 
		309.16,384.25 309.17,389.44 309.21,400.39 309.25,415.67 309.26,417.13 309.3,431.71 309.34,444.83 309.34,447.08 309.39,463.03 
		309.42,472.53 309.44,478.5 309.48,494.35 309.5,500.22 309.53,509.91 309.57,525.66 309.58,527.92 309.62,541.33 309.66,555.62 
		309.67,556.98 309.71,572.74 309.74,583.31 309.76,588.3 309.8,604.16 309.82,611.01 309.85,619.62 309.9,635.57 309.9,638.7 
		309.94,650.93 324.37,643.26 333.07,638.64 337.59,636.24 353.87,627.58 365.25,621.53 365.22,610.85 365.19,602.23 365.16,590.22 
		365.13,583.15 365.1,570.82 365.06,558.9 365.05,555.46 365.01,539.4 364.97,527.76 364.64,527.76 364.97,527.58 364.92,507.99 
		364.89,500.06 364.88,496.26 364.82,476.57 364.81,472.37 364.79,464.94 364.73,445.16 364.73,444.67 392.43,444.59 403.15,444.56 
		420.12,444.51 422.5,444.5 447.82,444.43 447.84,452.16 447.86,457.98 447.9,472.13 447.94,483.48 447.95,489.4 447.98,499.82 
		448.03,514.8 448.04,520.81 448.06,527.52 448.12,546.12 448.14,552.22 448.14,555.22 448.21,577.43 471.89,564.85 475.86,562.74 
		490.24,555.09 501.39,549.17 	"/>
	<polygon class="st2" points="503.17,313.53 503.17,429.81 503.15,424.64 503.15,422.76 503.13,416.57 503.06,393.22 503.06,391.45 
		503.05,388.87 502.97,361.81 502.97,360.13 502.89,333.48 502.88,330.4 502.88,328.81 502.83,313.35 	"/>
	<polyline class="st1" points="825.66,909.73 531.81,753.53 504.07,738.79 476.33,724.04 448.59,709.3 442.38,706 420.85,694.55 
		412.88,690.31 393.12,679.81 383.38,674.63 367.57,666.23 365.37,665.06 353.87,658.95 337.63,650.31 324.72,643.45 324.37,643.26 
			"/>
	<polyline class="st1" points="-273.92,325.24 -88.68,423.7 -59.19,439.38 -46.99,445.87 -29.68,455.07 -0.18,470.75 4.84,473.42 
		29.33,486.43 32.5,488.12 56.66,500.96 58.83,502.12 60.24,502.86 60.96,503.25 	"/>
	<polyline class="st1" points="309.9,635.57 294.86,627.58 282.15,620.83 265.36,611.9 263.94,611.14 254.41,606.08 	"/>
	<polyline class="st1" points="353.87,627.58 354.23,627.77 365.28,633.65 374.44,638.51 383.37,643.26 393.02,648.39 
		412.88,658.95 420.76,663.14 426.26,666.06 442.38,674.63 448.5,677.88 471.89,690.32 476.24,692.63 503.98,707.37 531.72,722.12 
		838.66,885.28 	"/>
	<polyline class="st1" points="-260.92,300.78 -59.18,408.02 -40.11,418.16 -29.68,423.7 -0.17,439.38 11.7,445.7 29.33,455.07 
		32.4,456.7 58.83,470.75 60.15,471.45 60.96,471.88 	"/>
	<polyline class="st1" points="309.8,604.16 294.86,596.22 282.06,589.41 270.8,583.42 265.36,580.53 254.32,574.66 	"/>
	<polyline class="st1" points="365.19,602.23 381.31,610.8 383.37,611.9 383.73,612.09 392.93,616.98 412.88,627.58 420.67,631.72 
		433.12,638.34 442.38,643.27 448.41,646.47 471.89,658.95 476.14,661.21 484.94,665.89 501.39,674.63 503.89,675.96 531.63,690.7 
		851.66,860.82 	"/>
	<polyline class="st1" points="-247.92,276.33 -33.26,390.44 -29.68,392.34 -0.18,408.02 18.57,417.98 29.33,423.7 32.31,425.29 
		58.83,439.38 60.06,440.04 60.96,440.52 	"/>
	<polyline class="st1" points="309.71,572.74 294.86,564.85 281.97,558 277.67,555.71 265.36,549.17 254.23,543.25 	"/>
	<polyline class="st1" points="115.53,469.53 117.84,470.75 122.21,473.07 143.28,484.27 147.34,486.43 171.01,499.01 
		174.03,500.62 176.85,502.12 198.75,513.76 	"/>
	<polyline class="st1" points="365.1,570.82 383.37,580.53 388.16,583.08 392.84,585.57 412.88,596.22 413.23,596.41 420.58,600.31 
		439.99,610.63 442.38,611.9 448.32,615.06 471.88,627.58 476.05,629.8 491.8,638.17 501.39,643.27 503.8,644.55 530.89,658.95 
		531.54,659.29 543.62,665.72 864.66,836.37 	"/>
	<polyline class="st1" points="-234.92,251.87 -26.39,362.72 -0.17,376.65 25.43,390.26 29.33,392.33 32.22,393.87 58.83,408.02 
		59.96,408.62 60.96,409.15 	"/>
	<polyline class="st1" points="309.62,541.33 294.86,533.48 284.53,527.99 281.88,526.58 265.36,517.8 254.14,511.84 	"/>
	<polyline class="st1" points="198.66,482.35 180.89,472.9 176.84,470.75 170.92,467.6 147.34,455.07 143.18,452.86 129.07,445.35 
		117.84,439.38 115.44,438.11 	"/>
	<polyline class="st1" points="365.01,539.4 383.38,549.17 392.75,554.15 395.05,555.37 412.88,564.85 420.48,568.89 442.38,580.53 
		442.74,580.72 446.86,582.91 448.23,583.64 471.89,596.21 475.96,598.38 498.68,610.46 501.39,611.9 503.7,613.13 530.9,627.58 
		531.44,627.87 550.49,638 560.4,643.26 602.32,665.55 877.66,811.91 	"/>
	<polyline class="st1" points="-221.92,227.41 -19.51,335 29.33,360.97 32.13,362.45 32.3,362.54 58.83,376.65 59.87,377.2 
		60.96,377.78 	"/>
	<polyline class="st1" points="309.53,509.91 294.86,502.12 291.4,500.28 281.79,495.16 265.36,486.43 254.04,480.42 	"/>
	<polyline class="st1" points="239.59,472.73 235.86,470.75 226.31,465.67 206.35,455.06 198.57,450.93 187.76,445.18 
		176.85,439.38 170.83,436.18 147.35,423.7 143.09,421.44 135.95,417.64 117.84,408.02 115.35,406.69 	"/>
	<polyline class="st1" points="890.66,787.45 609.18,637.83 589.9,627.58 560.4,611.9 557.37,610.29 531.35,596.46 530.9,596.21 
		505.54,582.74 503.61,581.71 501.39,580.53 475.87,566.96 472.24,565.04 471.89,564.85 	"/>
	<polyline class="st1" points="448.14,552.22 442.38,549.17 420.39,537.48 412.88,533.48 401.91,527.65 392.66,522.73 383.37,517.8 
		364.92,507.99 	"/>
	<polyline class="st1" points="60.96,346.42 59.78,345.79 58.84,345.29 39.17,334.83 32.04,331.04 -12.66,307.29 -64.48,279.74 
		-208.92,202.96 	"/>
	<polyline class="st1" points="115.26,375.28 117.84,376.65 142.81,389.92 143,390.03 147.34,392.33 170.73,404.77 176.85,408.02 
		194.63,417.47 198.48,419.51 206.35,423.7 226.22,434.26 235.85,439.38 246.44,445.01 253.95,449 265.36,455.07 281.7,463.75 
		294.86,470.75 298.27,472.56 309.44,478.5 	"/>
	<polyline class="st1" points="903.66,763 619.41,611.9 616.05,610.12 589.9,596.22 564.22,582.57 560.4,580.53 531.26,565.04 
		530.89,564.85 512.42,555.03 503.52,550.3 501.75,549.36 501.39,549.17 	"/>
	<polyline class="st1" points="448.04,520.81 442.38,517.8 420.3,506.06 412.88,502.12 408.77,499.93 392.56,491.32 383.37,486.43 
		364.82,476.57 	"/>
	<polyline class="st1" points="-195.92,178.5 -57.6,252.03 -5.79,279.56 31.95,299.63 46.03,307.11 59.69,314.37 60.96,315.05 	"/>
	<polyline class="st1" points="309.34,447.08 305.13,444.84 294.86,439.38 281.61,432.34 281.6,432.34 265.36,423.7 253.86,417.59 
		253.31,417.3 235.85,408.02 226.12,402.84 206.35,392.33 201.49,389.75 198.39,388.1 176.85,376.65 170.64,373.35 149.67,362.2 
		147.35,360.97 142.91,358.61 117.84,345.28 	"/>
	<polyline class="st1" points="916.66,738.54 648.91,596.22 622.91,582.4 619.41,580.53 589.9,564.85 571.1,554.86 560.4,549.17 
		531.17,533.63 530.89,533.48 519.28,527.31 503.43,518.88 503.17,518.75 	"/>
	<polyline class="st1" points="447.95,489.4 442.38,486.43 420.21,474.65 415.64,472.22 412.88,470.75 392.47,459.9 383.37,455.07 
		364.73,445.16 	"/>
	<polyline class="st1" points="-182.92,154.05 -50.75,224.31 1.08,251.85 31.85,268.22 31.86,268.22 52.89,279.39 59.6,282.96 
		87.33,297.71 89.03,298.61 	"/>
	<polyline class="st1" points="309.25,415.67 294.86,408.02 281.51,400.92 265.36,392.33 260.18,389.58 253.77,386.18 
		235.85,376.65 226.03,371.43 208.35,362.03 	"/>
	<polyline class="st1" points="198.29,356.69 176.85,345.29 170.55,341.94 156.53,334.49 147.34,329.6 	"/>
	<polyline class="st1" points="929.66,714.09 678.41,580.53 648.91,564.85 629.79,554.69 619.4,549.17 589.9,533.48 577.96,527.14 
		560.39,517.8 531.08,502.22 530.89,502.12 526.13,499.59 503.34,487.47 503.17,487.38 	"/>
	<polyline class="st1" points="422.5,444.5 442.38,455.07 447.86,457.98 	"/>
	<polyline class="st1" points="-169.92,129.59 -43.87,196.59 7.94,224.13 31.76,236.8 59.51,251.55 59.77,251.68 87.24,266.29 
		111.57,279.22 114.98,281.03 118.54,282.92 	"/>
	<line class="st1" x1="198.2" y1="325.27" x2="176.84" y2="313.92"/>
	<polyline class="st1" points="309.16,384.25 294.86,376.65 281.42,369.51 267.04,361.86 265.36,360.97 253.68,354.76 	"/>
	<polyline class="st1" points="942.66,689.63 707.92,564.85 678.41,549.17 648.91,533.48 619.41,517.8 589.9,502.12 584.83,499.42 
		560.4,486.43 533.02,471.88 530.98,470.8 530.9,470.75 503.25,456.05 503.17,456.01 	"/>
	<line class="st1" x1="377.56" y1="389.24" x2="364.55" y2="382.33"/>
	<polyline class="st1" points="-156.92,105.13 -37,168.87 14.82,196.42 31.67,205.38 59.42,220.13 66.63,223.96 87.15,234.87 
		114.89,249.62 118.46,251.51 142.63,264.36 148.04,267.24 	"/>
	<polyline class="st1" points="253.59,323.34 265.36,329.6 273.91,334.15 281.33,338.09 294.86,345.28 309.07,352.83 	"/>
	<polyline class="st1" points="955.66,665.17 737.43,549.17 707.92,533.48 678.42,517.8 648.91,502.12 619.41,486.43 591.7,471.71 
		589.9,470.75 560.4,455.07 539.88,444.16 530.89,439.38 503.17,424.65 503.15,424.64 	"/>
	<polyline class="st1" points="364.46,350.91 383.37,360.97 384.41,361.52 392.2,365.66 412.88,376.65 419.93,380.4 436.24,389.07 	
		"/>
	<polyline class="st1" points="177.54,251.56 177.14,251.34 170.28,247.69 142.54,232.95 125.31,223.79 114.8,218.2 87.06,203.46 
		73.5,196.25 59.32,188.72 31.58,173.97 21.68,168.7 -143.92,80.68 	"/>
	<polyline class="st1" points="253.5,291.93 265.36,298.24 280.78,306.43 281.24,306.68 294.86,313.92 308.98,321.42 	"/>
	<polyline class="st1" points="968.66,640.72 766.93,533.48 737.42,517.8 707.92,502.12 678.41,486.43 648.91,470.75 619.41,455.07 
		598.56,443.99 589.9,439.38 560.39,423.7 546.73,416.44 530.89,408.02 530.8,407.97 503.17,393.28 503.06,393.22 	"/>
	<polyline class="st1" points="447.59,363.73 443.1,361.35 442.38,360.97 419.84,348.99 412.88,345.28 392.1,334.24 391.28,333.8 
		383.37,329.6 364.37,319.5 	"/>
	<polyline class="st1" points="207.05,235.87 197.93,231.02 184,223.62 170.18,216.28 142.45,201.54 132.19,196.08 114.71,186.79 
		86.97,172.04 80.37,168.53 59.23,157.3 31.49,142.55 -130.92,56.22 	"/>
	<polyline class="st1" points="253.4,260.51 265.36,266.87 281.15,275.26 287.64,278.71 294.86,282.55 308.88,290.01 	"/>
	<polyline class="st1" points="981.66,616.26 796.43,517.8 766.93,502.12 737.42,486.43 707.92,470.75 678.41,455.07 648.91,439.38 
		619.41,423.7 605.42,416.27 589.9,408.02 560.4,392.33 553.61,388.73 530.89,376.65 530.71,376.55 503.17,361.92 502.97,361.81 	
		"/>
	<polyline class="st1" points="447.5,332.32 442.38,329.6 419.75,317.57 412.88,313.92 398.15,306.09 392.01,302.83 383.37,298.24 
		364.28,288.08 	"/>
	<polyline class="st1" points="-117.92,31.77 31.4,111.14 59.14,125.89 86.87,140.62 86.88,140.63 114.62,155.38 139.05,168.36 
		142.36,170.12 170.09,184.87 190.87,195.91 197.84,199.61 225.57,214.36 236.55,220.19 	"/>
	<polyline class="st1" points="253.31,229.1 265.36,235.51 281.06,243.85 294.51,251 294.86,251.19 308.79,258.59 	"/>
	<polyline class="st1" points="994.66,591.81 825.93,502.12 796.43,486.44 766.92,470.75 737.42,455.07 707.91,439.38 678.41,423.7 
		648.91,408.02 619.4,392.33 612.29,388.56 589.9,376.65 560.47,361.01 560.39,360.97 530.89,345.29 530.62,345.14 508.64,333.46 
		503.17,330.55 502.88,330.4 	"/>
	<polyline class="st1" points="447.4,300.91 442.38,298.24 419.66,286.16 412.88,282.55 405,278.37 391.92,271.41 383.37,266.87 
		364.18,256.67 	"/>
	<polyline class="st1" points="308.7,227.18 301.37,223.28 294.86,219.82 280.96,212.43 266.05,204.51 253.22,197.69 249.55,195.74 
		225.48,182.94 197.75,168.2 197.73,168.19 170,153.45 142.27,138.71 114.53,123.96 86.78,109.21 59.05,94.47 31.31,79.72 
		-104.92,7.31 	"/>
	<polyline class="st1" points="-91.92,-17.15 86.69,77.79 114.43,92.54 142.18,107.29 169.91,122.03 197.65,136.78 225.39,151.52 
		253.13,166.27 256.43,168.02 280.87,181.01 308.24,195.56 308.61,195.76 324.37,204.14 336.35,210.5 353.87,219.82 360.06,223.11 
		364.09,225.25 383.38,235.5 391.83,239.99 411.89,250.66 412.88,251.19 419.57,254.74 442.38,266.87 447.31,269.49 463.7,278.2 
		471.89,282.55 475.05,284.23 501.39,298.23 502.79,298.98 515.52,305.75 530.53,313.72 530.9,313.92 560.4,329.6 567.33,333.29 
		589.9,345.28 619.16,360.84 619.41,360.97 648.91,376.65 678.41,392.33 707.92,408.02 737.42,423.7 766.93,439.38 796.43,455.07 
		825.93,470.75 855.44,486.43 1007.66,567.35 	"/>
	<polyline class="st1" points="-78.92,-41.6 142.09,75.88 169.82,90.62 197.56,105.37 225.3,120.11 253.04,134.86 280.78,149.61 
		308.52,164.35 315.1,167.85 336.26,179.09 353.87,188.46 364,193.84 366.92,195.39 383.37,204.14 391.74,208.59 412.88,219.82 
		418.74,222.94 419.48,223.33 442.38,235.51 447.22,238.08 470.56,250.49 471.88,251.19 474.95,252.82 501.39,266.87 502.7,267.57 
		522.37,278.03 530.43,282.31 530.89,282.55 560.39,298.24 574.2,305.58 589.9,313.92 619.4,329.6 626.01,333.12 648.9,345.29 
		678.41,360.97 707.91,376.65 737.42,392.34 766.92,408.02 796.42,423.7 825.93,439.39 855.43,455.07 884.94,470.75 1020.66,542.9 	
		"/>
	<polyline class="st1" points="786.66,983.1 365.65,759.31 353.87,753.05 337.9,744.56 324.37,737.36 310.17,729.82 294.86,721.68 
		282.43,715.07 265.36,706 254.69,700.32 235.85,690.32 226.95,685.58 206.35,674.63 199.21,670.84 191.51,666.74 176.85,658.95 
		171.47,656.09 147.34,643.26 143.73,641.35 139.7,639.2 117.84,627.58 115.99,626.6 88.33,611.9 88.25,611.86 87.88,611.66 
		60.51,597.11 58.83,596.22 36.05,584.11 32.77,582.36 29.33,580.53 -0.18,564.85 -15.76,556.57 -29.69,549.17 -59.19,533.48 
		-67.59,529.02 -88.69,517.8 -118.19,502.12 -147.7,486.43 -177.2,470.75 -312.92,398.61 	"/>
	<polyline class="st1" points="799.91,958.78 421.03,757.38 393.3,742.64 383.37,737.37 365.56,727.9 353.87,721.68 337.81,713.15 
		324.36,706 310.08,698.41 294.86,690.32 282.34,683.66 265.36,674.63 254.59,668.91 250.19,666.57 235.85,658.95 226.86,654.17 
		206.35,643.27 199.12,639.42 198.38,639.03 176.84,627.58 171.37,624.68 147.34,611.9 146.56,611.48 143.64,609.94 117.84,596.22 
		115.9,595.19 94.73,583.93 88.33,580.53 88.16,580.44 60.42,565.7 58.83,564.85 42.92,556.4 32.68,550.95 29.32,549.17 
		-0.18,533.48 -8.91,528.85 -29.68,517.8 -59.19,502.12 -60.72,501.31 -88.69,486.44 -118.2,470.75 -147.7,455.07 -299.67,374.29 	
		"/>
	<polyline class="st1" points="-286.54,349.9 -118.19,439.39 -88.69,455.07 -59.18,470.75 -53.85,473.59 -29.68,486.43 
		-2.03,501.13 -0.18,502.12 29.32,517.8 32.59,519.53 49.78,528.68 58.83,533.48 60.33,534.28 60.96,534.62 	"/>
	<polyline class="st1" points="813.04,934.39 476.42,755.46 448.68,740.71 420.94,725.97 412.88,721.68 393.21,711.22 383.37,706 
		365.46,696.48 353.87,690.31 337.72,681.73 324.36,674.63 309.99,666.99 308.88,666.4 295.22,659.14 294.86,658.95 282.25,652.24 
		265.36,643.27 257.07,638.86 254.5,637.5 	"/>
	<polyline class="st1" points="-117.92,909.73 171.76,755.75 199.41,741.05 227.07,726.35 254.72,711.65 265.36,706 282.38,696.95 
		294.86,690.32 310.03,682.25 324.36,674.63 337.68,667.55 340.02,666.31 353.87,658.95 365.34,652.85 383.37,643.26 392.41,638.46 
		392.99,638.15 412.88,627.58 420.64,623.45 442.38,611.9 444.79,610.62 448.3,608.75 471.89,596.21 475.95,594.05 497.19,582.76 
		501.39,580.53 503.61,579.35 530.89,564.85 531.26,564.65 549.57,554.92 560.4,549.17 589.9,533.48 601.97,527.07 619.41,517.8 
		648.91,502.12 678.41,486.43 707.92,470.75 737.42,455.07 766.93,439.38 796.42,423.7 981.66,325.24 	"/>
	<polyline class="st1" points="309.94,650.93 294.86,658.95 282.28,665.63 281.71,665.94 280.69,666.48 265.36,674.63 
		254.63,680.34 235.85,690.32 226.98,695.03 199.32,709.73 171.66,724.44 144.02,739.13 116.36,753.83 -130.92,885.28 	"/>
	<polyline class="st1" points="365.25,621.53 383.37,611.9 385.46,610.79 392.9,606.83 412.88,596.22 420.55,592.14 437.86,582.94 
		442.38,580.53 448.21,577.43 	"/>
	<polyline class="st1" points="503.17,548.22 503.51,548.04 530.89,533.48 531.17,533.34 542.64,527.24 560.39,517.8 589.9,502.12 
		595.03,499.39 619.41,486.43 648.91,470.75 678.41,455.07 707.91,439.38 737.42,423.7 766.92,408.02 968.66,300.78 	"/>
	<polyline class="st1" points="309.85,619.62 294.86,627.58 282.19,634.32 273.74,638.81 265.36,643.27 254.54,649.02 	"/>
	<polyline class="st1" points="252.2,650.26 235.85,658.95 226.89,663.71 221.35,666.66 206.35,674.63 199.23,678.42 171.57,693.12 
		143.93,707.81 116.27,722.51 88.62,737.21 60.96,751.91 33.31,766.61 -143.92,860.82 	"/>
	<polyline class="st1" points="365.16,590.22 378.53,583.11 383.37,580.53 392.81,575.52 412.88,564.85 420.46,560.82 
		430.91,555.27 442.38,549.17 448.12,546.12 	"/>
	<polyline class="st1" points="503.17,516.85 503.42,516.72 530.89,502.12 531.08,502.02 535.7,499.56 560.4,486.43 588.09,471.72 
		589.9,470.75 619.41,455.07 648.91,439.38 678.41,423.7 707.92,408.02 737.42,392.34 955.66,276.33 	"/>
	<polyline class="st1" points="309.76,588.3 294.86,596.22 282.1,603 266.8,611.13 265.36,611.9 254.44,617.7 	"/>
	<polyline class="st1" points="222.7,634.58 214.41,638.98 206.35,643.27 199.14,647.1 176.85,658.95 171.48,661.8 162.03,666.83 
		143.83,676.5 116.18,691.2 88.53,705.9 60.87,720.6 33.22,735.3 -156.92,836.37 	"/>
	<polyline class="st1" points="365.06,558.9 371.58,555.44 383.38,549.17 392.72,544.2 412.88,533.48 420.37,529.5 423.98,527.59 
		442.38,517.8 448.03,514.8 	"/>
	<polyline class="st1" points="503.17,485.49 503.33,485.4 528.75,471.89 530.9,470.75 530.98,470.7 560.4,455.07 581.15,444.04 
		589.9,439.38 619.41,423.7 648.91,408.02 678.41,392.33 707.91,376.65 942.66,251.87 	"/>
	<polyline class="st1" points="309.67,556.98 294.86,564.85 282.01,571.68 265.36,580.53 259.86,583.45 254.35,586.38 	"/>
	<polyline class="st1" points="193.19,618.89 176.84,627.58 171.39,630.48 155.07,639.16 147.34,643.26 143.74,645.18 
		116.09,659.88 102.69,667 88.44,674.58 60.78,689.28 33.12,703.98 -169.92,811.91 	"/>
	<polyline class="st1" points="364.97,527.58 383.37,517.8 392.63,512.88 412.88,502.12 417.03,499.91 420.28,498.18 442.38,486.43 
		447.94,483.48 	"/>
	<polyline class="st1" points="503.17,454.12 503.24,454.08 521.81,444.21 530.89,439.38 560.39,423.7 574.21,416.36 589.9,408.02 
		619.4,392.33 626.59,388.51 648.91,376.65 678.41,360.97 929.66,227.41 	"/>
	<polyline class="st1" points="254.26,555.06 265.36,549.17 281.92,540.36 294.86,533.48 305.3,527.93 309.57,525.66 	"/>
	<polyline class="st1" points="163.69,603.21 148.13,611.48 147.34,611.9 143.65,613.86 117.84,627.58 115.99,628.56 95.73,639.33 
		88.35,643.26 60.69,657.96 43.35,667.18 33.03,672.66 -182.92,787.45 	"/>
	<polyline class="st1" points="364.88,496.26 383.37,486.43 392.54,481.56 410.08,472.24 412.88,470.75 420.19,466.86 
		442.38,455.07 447.84,452.16 	"/>
	<polyline class="st1" points="916.66,202.96 648.9,345.29 619.66,360.83 619.41,360.97 589.9,376.65 567.26,388.69 560.4,392.33 
		530.89,408.02 530.8,408.07 514.88,416.53 503.17,422.75 503.15,422.76 	"/>
	<polyline class="st1" points="309.48,494.35 298.36,500.26 294.86,502.12 281.83,509.04 265.36,517.8 254.17,523.75 	"/>
	<polyline class="st1" points="134.19,587.53 117.84,596.22 115.9,597.24 88.8,611.65 88.33,611.9 88.25,611.94 60.6,626.64 
		36.4,639.5 32.94,641.34 -15.98,667.35 -195.92,763 	"/>
	<polyline class="st1" points="403.15,444.56 392.44,450.25 383.37,455.07 364.79,464.94 	"/>
	<polyline class="st1" points="503.06,391.45 503.17,391.39 507.92,388.86 530.71,376.75 530.89,376.65 560.32,361.01 
		560.39,360.97 589.9,345.28 612.72,333.15 619.4,329.6 903.66,178.5 	"/>
	<polyline class="st1" points="309.39,463.03 294.86,470.75 291.42,472.58 281.74,477.73 265.36,486.43 254.08,492.43 	"/>
	<polyline class="st1" points="198.77,521.83 186.64,528.28 176.85,533.48 	"/>
	<polyline class="st1" points="104.68,571.84 88.33,580.53 88.16,580.62 81.86,583.97 60.51,595.32 58.83,596.22 32.85,610.03 
		29.46,611.83 -22.93,639.68 -208.92,738.54 	"/>
	<polyline class="st1" points="890.66,154.05 605.77,305.48 589.9,313.92 560.4,329.6 553.39,333.33 530.89,345.29 530.62,345.43 
		503.17,360.02 502.97,360.13 	"/>
	<polyline class="st1" points="147.35,517.8 171.03,505.21 176.85,502.12 179.7,500.6 198.68,490.51 	"/>
	<polyline class="st1" points="232.09,472.75 235.86,470.75 253.99,461.11 265.36,455.07 281.65,446.41 284.49,444.9 294.86,439.38 
		309.3,431.71 	"/>
	<polyline class="st1" points="75.18,556.16 74.92,556.3 60.42,564.01 58.83,564.85 32.76,578.71 29.33,580.53 22.54,584.14 
		-29.86,612 -221.92,714.09 	"/>
	<polyline class="st1" points="447.57,358.21 442.38,360.97 441.66,361.35 419.91,372.91 412.88,376.65 392.26,387.61 
		389.26,389.21 	"/>
	<polyline class="st1" points="877.66,129.59 598.83,277.8 560.39,298.24 546.44,305.66 530.9,313.92 530.53,314.11 503.17,328.66 
		502.88,328.81 	"/>
	<polyline class="st1" points="117.84,502.12 120.36,500.78 143.29,488.59 147.34,486.43 170.94,473.89 172.75,472.93 
		176.84,470.75 198.59,459.19 206.35,455.06 225.15,445.07 226.25,444.49 235.85,439.38 253.9,429.79 265.36,423.7 277.53,417.23 
		281.55,415.09 294.86,408.02 309.21,400.39 	"/>
	<polyline class="st1" points="60.96,532.35 60.33,532.69 58.83,533.48 32.67,547.39 29.32,549.17 15.58,556.47 -0.18,564.85 
		-36.8,584.32 -234.92,689.63 	"/>
	<polyline class="st1" points="364.52,370.99 382.32,361.53 383.37,360.97 392.17,356.29 412.88,345.28 419.82,341.59 
		434.71,333.68 442.38,329.6 447.48,326.89 	"/>
	<polyline class="st1" points="487.89,305.41 501.39,298.23 502.78,297.49 530.43,282.79 530.89,282.55 539.49,277.98 
		591.87,250.13 864.66,105.13 	"/>
	<polyline class="st1" points="309.12,369.07 294.86,376.65 281.46,383.77 270.59,389.55 265.36,392.33 253.81,398.47 
		235.85,408.02 226.15,413.17 218.2,417.4 206.35,423.7 198.5,427.87 176.85,439.38 170.84,442.57 165.81,445.25 147.34,455.07 
		143.2,457.27 117.84,470.75 115.54,471.97 	"/>
	<polyline class="st1" points="60.96,500.98 60.23,501.37 58.83,502.12 32.58,516.07 29.32,517.8 8.64,528.79 -0.18,533.48 
		-29.69,549.17 -43.76,556.65 -247.92,665.17 	"/>
	<polyline class="st1" points="364.43,339.67 375.38,333.85 383.37,329.6 392.08,324.97 412.88,313.92 419.73,310.28 427.77,306 
		442.38,298.24 447.39,295.57 	"/>
	<polyline class="st1" points="458.39,289.73 471.89,282.55 475.04,280.88 480.17,278.15 501.39,266.87 502.69,266.18 
		530.34,251.48 532.55,250.31 584.95,222.45 851.66,80.68 	"/>
	<polyline class="st1" points="309.02,337.76 294.86,345.28 281.37,352.46 265.36,360.97 263.66,361.87 253.71,367.16 
		235.85,376.65 226.06,381.86 211.26,389.72 206.35,392.33 198.41,396.56 176.85,408.02 170.75,411.26 158.87,417.57 147.35,423.7 
		143.11,425.95 117.84,439.38 115.45,440.66 	"/>
	<polyline class="st1" points="60.96,469.62 60.14,470.05 58.83,470.75 54.09,473.27 32.49,484.76 29.33,486.43 1.69,501.12 
		-0.18,502.12 -29.68,517.8 -50.69,528.97 -59.19,533.48 -260.92,640.72 	"/>
	<polyline class="st1" points="838.66,56.22 630.39,166.93 578.01,194.77 530.25,220.16 525.61,222.63 502.6,234.86 474.95,249.56 
		473.21,250.48 471.88,251.19 447.3,264.26 442.38,266.87 428.88,274.04 420.83,278.32 419.64,278.96 412.88,282.55 391.99,293.66 
		383.37,298.24 368.44,306.18 364.33,308.36 	"/>
	<polyline class="st1" points="115.36,409.34 117.84,408.02 143.01,394.64 147.34,392.33 151.93,389.9 170.66,379.94 176.85,376.65 
		198.32,365.24 204.33,362.04 	"/>
	<polyline class="st1" points="253.62,335.84 256.72,334.2 265.36,329.6 281.28,321.14 294.86,313.92 308.93,306.44 	"/>
	<polyline class="st1" points="60.96,438.25 60.05,438.73 58.83,439.38 47.15,445.59 32.39,453.44 29.33,455.07 -0.18,470.75 
		-5.25,473.44 -29.68,486.43 -57.65,501.3 -59.19,502.12 -88.69,517.8 -273.92,616.26 	"/>
	<polyline class="st1" points="825.66,31.77 571.06,167.1 530.16,188.85 518.68,194.95 502.51,203.54 474.85,218.24 466.28,222.8 
		447.21,232.94 442.38,235.51 419.55,247.64 413.88,250.65 412.88,251.19 399.38,258.36 391.89,262.34 383.37,266.87 364.24,277.04 
			"/>
	<polyline class="st1" points="198.23,333.92 197.38,334.37 176.85,345.29 170.57,348.62 147.35,360.97 145,362.22 142.92,363.32 
		117.84,376.65 115.27,378.02 	"/>
	<polyline class="st1" points="253.53,304.52 265.36,298.24 281.19,289.82 294.86,282.55 302.17,278.67 308.84,275.12 	"/>
	<polyline class="st1" points="60.96,406.89 59.96,407.42 58.83,408.02 40.21,417.92 32.3,422.12 29.33,423.7 -0.17,439.38 
		-12.18,445.76 -29.68,455.07 -59.18,470.75 -64.57,473.62 -88.69,486.44 -118.19,502.12 -286.92,591.81 	"/>
	<polyline class="st1" points="812.66,7.31 530.07,157.53 511.73,167.28 502.42,172.22 474.76,186.92 459.34,195.12 447.11,201.62 
		419.46,216.32 412.88,219.82 406.95,222.97 391.8,231.02 383.38,235.5 369.88,242.68 364.15,245.72 	"/>
	<polyline class="st1" points="253.44,273.2 265.36,266.87 281.1,258.5 294.86,251.19 295.21,251 308.75,243.8 	"/>
	<polyline class="st1" points="60.96,375.52 59.87,376.1 58.83,376.65 33.26,390.24 32.21,390.8 29.33,392.33 -0.18,408.02 
		-19.14,418.09 -29.68,423.7 -59.19,439.38 -88.69,455.07 -118.2,470.75 -147.7,486.43 -299.92,567.35 	"/>
	<polyline class="st1" points="799.66,-17.15 529.98,126.2 502.33,140.9 474.67,155.6 452.39,167.45 447.02,170.3 419.37,185 
		400,195.3 391.71,199.7 383.37,204.14 364.06,214.4 353.87,219.82 347.61,223.15 340.37,226.99 	"/>
	<polyline class="st1" points="253.35,241.89 265.36,235.51 281.01,227.19 288.29,223.32 294.86,219.82 308.66,212.49 	"/>
	<polyline class="st1" points="60.96,344.16 59.78,344.79 58.84,345.29 32.12,359.49 29.33,360.97 26.34,362.56 -0.17,376.65 
		-26.06,390.41 -29.68,392.34 -59.18,408.02 -88.68,423.7 -118.19,439.39 -147.7,455.07 -177.2,470.75 -312.92,542.9 	"/>
	<polyline class="st1" points="786.66,-41.6 529.88,94.89 502.24,109.59 474.58,124.29 446.93,138.99 419.27,153.69 393.06,167.62 
		391.62,168.39 363.97,183.09 353.87,188.46 340.68,195.47 336.31,197.79 324.37,204.14 310.87,211.31 	"/>
	<polyline class="st1" points="1020.66,398.61 884.94,470.75 855.44,486.43 825.93,502.12 796.43,517.8 766.93,533.48 
		737.43,549.17 707.92,564.85 678.41,580.53 648.91,596.22 622.8,610.1 619.41,611.9 589.9,627.58 570.41,637.94 560.4,643.26 
		531.53,658.61 530.89,658.95 518.02,665.79 503.88,673.31 501.39,674.63 476.22,688.01 471.89,690.32 448.57,702.71 442.38,706 
		420.92,717.41 412.88,721.68 393.27,732.1 383.37,737.37 365.61,746.81 353.87,753.05 337.95,761.51 -78.92,983.1 	"/>
	<polyline class="st1" points="1007.4,374.29 855.43,455.07 825.93,470.75 796.43,486.44 766.93,502.12 737.42,517.8 707.92,533.48 
		678.41,549.17 648.91,564.85 619.41,580.53 615.86,582.42 589.9,596.22 563.46,610.27 560.4,611.9 531.44,627.29 530.9,627.58 
		511.08,638.12 503.79,641.99 501.39,643.27 476.13,656.69 471.89,658.95 458.69,665.97 448.48,671.39 442.38,674.63 420.83,686.09 
		412.88,690.31 393.18,700.79 383.37,706 365.52,715.49 353.87,721.68 337.86,730.19 324.37,737.36 310.22,744.89 282.56,759.59 
		-92.17,958.78 	"/>
	<polyline class="st1" points="994.28,349.9 825.93,439.39 796.43,455.07 766.92,470.75 737.42,486.43 707.92,502.12 678.42,517.8 
		648.91,533.48 619.4,549.17 608.91,554.75 589.9,564.85 560.4,580.53 556.53,582.59 531.35,595.97 530.9,596.21 504.13,610.44 
		503.7,610.67 501.39,611.9 476.04,625.37 471.88,627.58 451.74,638.29 448.39,640.07 442.38,643.27 420.73,654.77 412.88,658.95 
		399.35,666.14 393.09,669.47 383.38,674.63 365.43,684.17 353.87,690.31 337.77,698.87 324.36,706 310.12,713.57 294.86,721.68 
		282.47,728.27 254.81,742.97 227.16,757.67 -105.3,934.39 	"/>
</g>
<g id="Calque_2" class="st0">
</g>
<g id="Logo">
	<g id="Logo_x5F_final">
		<polygon class="st3" points="543.38,419.81 543.38,553.33 541.4,554.4 529.01,561.07 513.03,569.7 508.62,572.08 482.3,586.26 
			482.22,561.22 482.22,557.84 482.2,550.96 482.13,529.99 482.11,522.42 482.1,515.64 482.04,498.75 482.01,487 482,480.33 
			481.95,467.53 481.91,451.58 481.89,445.01 481.86,436.3 453.72,436.38 451.08,436.39 432.22,436.44 420.3,436.48 389.52,436.57 
			389.52,437.12 389.58,459.42 389.6,467.8 389.62,472.54 389.68,494.74 389.69,499.02 389.73,507.97 389.78,530.05 389.41,530.26 
			389.78,530.26 389.83,543.38 389.87,561.49 389.88,565.37 389.93,578.81 389.96,592.71 389.99,600.69 390.03,614.23 
			390.06,623.95 390.09,635.99 377.44,642.81 359.35,652.58 354.33,655.28 344.66,660.49 328.62,669.14 328.57,655.35 
			328.57,651.82 328.52,633.84 328.49,624.13 328.46,616.4 328.42,598.52 328.4,592.89 328.36,580.98 328.32,563.2 328.31,561.67 
			328.26,545.56 328.22,530.44 328.21,527.89 328.16,510.13 328.13,499.2 328.11,492.59 328.06,474.71 328.04,467.98 328.01,457.27 
			327.95,439.28 327.95,436.75 327.91,421.95 327.86,405.51 327.85,403.87 327.81,386.64 327.76,374.29 327.75,368.44 
			327.71,351.32 327.67,343.06 327.65,333.01 327.6,316.02 327.59,311.82 327.55,297.59 327.5,280.7 327.7,280.6 327.5,280.6 
			327.44,262.18 327.41,249.37 327.4,245.39 327.34,226.75 327.32,218.15 327.3,210.07 327.24,191.33 327.23,186.91 327.2,174.77 
			327.19,172.11 329.65,173.44 354.48,186.83 358.02,188.74 362.44,191.12 388.85,205.37 388.87,212.24 388.89,217.97 388.9,224.58 
			388.97,247.55 388.98,249.19 389.01,260 389.07,280.42 389.07,282.87 389.11,295.43 389.16,311.64 389.18,318.17 389.21,330.85 
			389.25,342.88 389.28,353.49 389.32,366.27 389.34,374.11 403.77,374.07 416.78,374.03 420.11,374.02 450.9,373.93 468.99,373.87 
			481.69,373.84 481.61,345.3 481.6,342.61 481.59,339.08 481.51,311.37 481.51,309.89 481.49,303.76 481.42,280.15 481.4,274.47 
			481.39,268.45 481.34,255.24 493.61,261.86 512.17,271.86 526.4,279.54 527.28,280.02 543,288.5 543.06,305.93 543.06,307.72 
			543.07,311.19 543.16,341.24 543.16,343.14 543.25,373.65 543.26,376.56 543.26,378.55 543.34,404.88 543.36,411.86 
			543.36,413.98 		"/>
		<polygon class="st3" points="267.05,666.99 267.05,669.78 264.44,668.38 240.77,655.61 236.23,653.16 231.66,650.7 205.39,636.53 
			198.86,633.01 183.18,624.56 174.55,619.91 166.07,615.33 143.73,603.28 133.28,597.65 125.57,593.49 112.9,586.66 100.49,579.96 
			82.07,570.03 68,562.44 67.7,562.28 51.89,553.76 51.89,500.06 51.96,500.03 51.89,500.03 51.89,288.7 65.48,281.38 81.21,272.89 
			83.09,271.87 111.94,256.31 115.89,254.18 123.71,249.97 142.69,239.74 148.68,236.5 173.42,223.16 181.46,218.82 181.92,218.57 
			204.16,206.59 214.26,201.13 234.89,190.01 240.16,187.17 247.05,183.45 265.62,173.44 265.67,187.09 265.68,193.5 265.72,207.92 
			265.76,218.33 265.78,228.91 265.82,243.22 265.85,249.55 265.89,264.34 265.92,278.54 265.93,280.78 265.99,299.76 
			266.02,312.02 266.02,313.85 266.09,335.19 266.11,343.24 235.33,343.33 215.71,343.39 211.24,343.4 204.55,343.42 204.53,337.36 
			204.46,312.2 204.46,311.69 204.43,301.94 204.37,280.96 204.36,276.37 195.79,280.99 180.69,289.14 173.62,292.95 147.9,306.82 
			142.89,309.52 137.56,312.39 115.11,324.5 112.14,326.1 112.2,343.69 112.24,358.33 112.26,361.42 112.29,374.92 112.34,393.74 
			112.36,396.73 112.38,406.16 112.44,429.17 112.46,432.05 112.47,437.38 112.54,464.6 112.56,467.35 112.56,468.61 112.64,499.85 
			112.34,499.85 112.64,500.02 115.11,501.35 143.49,516.65 147.91,519.03 169.93,530.9 174.31,533.27 180.7,536.71 205.14,549.89 
			205.08,530.8 205.06,523.57 205.04,514.47 204.99,499.58 204.96,488.26 204.94,479.05 204.91,468.34 235.69,468.25 242.09,468.23 
			250.43,468.21 266.47,468.16 266.49,476.88 266.53,490.42 266.56,499.4 266.6,512.31 266.63,525.74 266.65,530.62 266.7,547.72 
			266.73,561.04 266.73,561.85 266.8,583.14 266.82,593.07 266.83,596.36 266.9,618.57 266.92,624.31 266.93,631.67 267,654 
			267.01,655.54 		"/>
	</g>
</g>
</svg>
